# xmcd
#
# Track frame offsets: 
#        150
#        12075
#        33603
#        54022
#        77487
#        96322
#        120965
#        137472
#        170703
#        194965
#        216642
#        230411
#
# Disc length: 3169 seconds
#
# Revision: 0
# Processed by: cddbd v1.5.2PL0 Copyright (c) Steve Scherf et al.
# Submitted via: ExactAudioCopy v0.99pb1
#
DISCID=a10c5f0c
DTITLE=stubnblues - aus sun und aus regn
DYEAR=2007
DGENRE=R&B
TTITLE0=intro
TTITLE1=da r abrüü
TTITLE2=ballade fon da zuagschbeadn gredenz
TTITLE3=de wöd
TTITLE4=i hob de schenan madln ..
TTITLE5=hope that i don't fall
TTITLE6=oral
TTITLE7=rough and tumble
TTITLE8=floridsdorfer bahnhofer
TTITLE9=spuren (sand)
TTITLE10=noan
TTITLE11=wenn der herbst langsam näherrückt
EXTD=Live in Linz - 21. April 2007
EXTT0=
EXTT1=
EXTT2=
EXTT3=
EXTT4=
EXTT5=
EXTT6=
EXTT7=
EXTT8=
EXTT9=
EXTT10=
EXTT11=
PLAYORDER=
